<svg height="452pt" viewBox="-24 0 452 452.78544" width="452pt" xmlns="http://www.w3.org/2000/svg"><path d="m65.210938 22.355469c-1.945313 23.125-26.046876 26.777343-26.046876 26.777343 20.691407.976563 25.851563 28.117188 25.851563 28.117188.441406-19.351562 26.640625-28.402344 26.640625-28.402344-19.625-1.175781-26.445312-26.492187-26.445312-26.492187zm0 0" fill="#d7e057"/><path d="m91.835938 45.851562c-17.210938-1.027343-23.664063-24.046874-23.726563-24.28125-.382813-1.40625-1.722656-2.335937-3.167969-2.203124-1.449218.128906-2.59375 1.28125-2.714844 2.730468-1.722656 20.433594-22.628906 23.929688-23.507812 24.066406-1.527344.230469-2.628906 1.582032-2.546875 3.125.078125 1.539063 1.3125 2.765626 2.851563 2.839844 18.058593.851563 23 25.4375 23.046874 25.683594.273438 1.421875 1.519532 2.433594 2.945313 2.433594.082031 0 .167969 0 .253906-.007813 1.527344-.128906 2.710938-1.386719 2.746094-2.921875.390625-17.015625 24.382813-25.554687 24.628906-25.636718 1.347657-.46875 2.183594-1.828126 1.984375-3.246094-.199218-1.414063-1.367187-2.496094-2.792968-2.582032zm-27.132813 20.695313c-2.710937-6.261719-7.417969-13.816406-15.171875-17.753906 5.863281-2.8125 12.816406-7.828125 16.402344-16.546875 3.101562 6.140625 8.402344 13.757812 16.667968 17.441406-6.015624 3.285156-13.84375 8.8125-17.898437 16.859375zm0 0" fill="#3a312a"/><path d="m21.816406 56.316406c-1.378906 16.355469-18.425781 18.941406-18.425781 18.941406 14.636719.6875 18.285156 19.886719 18.285156 19.886719.3125-13.6875 18.84375-20.089843 18.84375-20.089843-13.882812-.832032-18.703125-18.738282-18.703125-18.738282zm0 0" fill="#d7e057"/><path d="m40.699219 72.058594c-11.53125-.6875-15.945313-16.371094-15.988281-16.527344-.378907-1.40625-1.703126-2.328125-3.164063-2.207031-1.453125.132812-2.597656 1.285156-2.71875 2.738281-1.160156 13.742188-15.292969 16.132812-15.886719 16.226562-1.523437.230469-2.625 1.582032-2.542968 3.121094.078124 1.542969 1.3125 2.769532 2.851562 2.84375 12.070312.566406 15.449219 17.289063 15.480469 17.453125.269531 1.421875 1.515625 2.4375 2.941406 2.4375.085937 0 .167969 0 .25-.007812 1.53125-.128907 2.71875-1.390625 2.753906-2.921875.257813-11.417969 16.660157-17.269532 16.824219-17.324219 1.351562-.46875 2.1875-1.828125 1.992188-3.246094-.195313-1.417969-1.367188-2.5-2.792969-2.585937zm-19.167969 13.589844c-1.847656-3.769532-4.679688-7.894532-8.894531-10.558594 3.710937-2.085938 7.394531-5.261719 9.742187-9.835938 2.113282 3.75 5.308594 7.910156 9.882813 10.449219-3.703125 2.203125-7.980469 5.480469-10.730469 9.945313zm0 0" fill="#3a312a"/><path d="m21.816406 3c-1.378906 16.359375-18.425781 18.941406-18.425781 18.941406 14.636719.6875 18.285156 19.886719 18.285156 19.886719.3125-13.6875 18.84375-20.089844 18.84375-20.089844-13.882812-.828125-18.703125-18.738281-18.703125-18.738281zm0 0" fill="#d7e057"/><path d="m40.699219 18.742188c-11.53125-.6875-15.945313-16.367188-15.988281-16.527344-.378907-1.402344-1.703126-2.328125-3.164063-2.2031252-1.449219.1289062-2.597656 1.2851562-2.71875 2.7343752-1.15625 13.742187-15.292969 16.136718-15.882813 16.230468-1.527343.230469-2.625 1.578126-2.546874 3.121094.082031 1.539063 1.3125 2.769532 2.855468 2.839844 12.070313.570312 15.445313 17.289062 15.480469 17.453125.269531 1.425781 1.515625 2.441406 2.945313 2.441406.082031 0 .164062-.003906.25-.011719 1.527343-.125 2.714843-1.386718 2.75-2.921874.261718-11.417969 16.664062-17.265626 16.824218-17.324219 1.355469-.464844 2.1875-1.824219 1.992188-3.242188-.199219-1.417969-1.371094-2.503906-2.796875-2.589843zm-19.167969 13.59375c-1.847656-3.773438-4.679688-7.894532-8.894531-10.558594 3.710937-2.082032 7.394531-5.261719 9.742187-9.832032 2.113282 3.742188 5.308594 7.90625 9.882813 10.445313-3.703125 2.199219-7.980469 5.480469-10.730469 9.945313zm0 0" fill="#3a312a"/><path d="m365.105469 100.90625h-277.375c-19.746094 0-35.75 16.003906-35.75 35.75v277.378906c0 19.746094 16.003906 35.75 35.75 35.75h277.375c19.746093 0 35.753906-16.003906 35.753906-35.75v-277.378906c0-19.746094-16.007813-35.75-35.753906-35.75zm0 0" fill="#87796f"/><path d="m365.105469 97.90625h-53.863281c-1.65625 0-3 1.339844-3 3 0 1.65625 1.34375 3 3 3h53.863281c18.058593 0 32.753906 14.691406 32.753906 32.75v277.378906c0 18.058594-14.695313 32.75-32.753906 32.75h-277.375c-18.058594 0-32.75-14.691406-32.75-32.75v-277.378906c0-18.058594 14.691406-32.75 32.75-32.75h194.53125c1.65625 0 3-1.34375 3-3 0-1.660156-1.34375-3-3-3h-194.53125c-21.367188 0-38.75 17.382812-38.75 38.75v277.378906c0 21.367188 17.382812 38.75 38.75 38.75h277.375c21.371093 0 38.753906-17.382812 38.753906-38.75v-277.378906c0-21.367188-17.382813-38.75-38.753906-38.75zm0 0" fill="#3a312a"/><path d="m355.546875 125.824219h-258.257813c-11.261718 0-20.390624 9.128906-20.390624 20.394531v258.253906c0 11.265625 9.128906 20.394532 20.390624 20.394532h258.257813c11.265625 0 20.394531-9.128907 20.394531-20.394532v-258.253906c0-11.261719-9.132812-20.394531-20.394531-20.394531zm0 0" fill="#8ac6dd"/><path d="m355.546875 122.824219h-258.257813c-12.898437 0-23.390624 10.496093-23.390624 23.394531v87.191406c0 1.660156 1.339843 3 3 3 1.65625 0 3-1.339844 3-3v-87.191406c0-9.589844 7.800781-17.394531 17.390624-17.394531h258.257813c9.59375 0 17.394531 7.804687 17.394531 17.394531v258.253906c0 9.59375-7.800781 17.394532-17.394531 17.394532h-258.257813c-9.589843 0-17.390624-7.800782-17.390624-17.394532v-141.074218c0-1.65625-1.34375-3-3-3-1.660157 0-3 1.34375-3 3v141.074218c0 12.902344 10.496093 23.394532 23.390624 23.394532h258.257813c12.898437 0 23.394531-10.496094 23.394531-23.394532v-258.253906c0-12.898438-10.496094-23.394531-23.394531-23.394531zm0 0" fill="#3a312a"/><path d="m284.683594 236.117188c0-17.628907 7.710937-31.949219 26.074218-31.949219 7.34375 0 13.21875 1.101562 17.992188 2.570312l2.203125-42.96875c-7.710937-2.203125-17.257813-3.671875-29.742187-3.671875-16.15625 0-35.621094 4.777344-49.574219 17.996094-16.15625 14.6875-22.765625 38.558594-22.765625 60.226562v6.976563h-45.402344v41.128906h45.402344v138.441407h56.183594v-138.441407h44.230468v-41.128906h-44.597656v-9.179687zm0 0" fill="#fce8cb"/><path d="m329.28125 242.296875h-41.601562v-6.179687c0-8.707032 2.25-28.949219 23.074218-28.949219 6.183594 0 11.78125.796875 17.113282 2.4375.878906.273437 1.839843.121093 2.605468-.410157.757813-.53125 1.226563-1.378906 1.273438-2.304687l2.203125-42.964844c.074219-1.394531-.828125-2.65625-2.171875-3.039062-8.917969-2.546875-18.917969-3.785157-30.566406-3.785157-20.195313 0-39.019532 6.859376-51.59375 18.773438-15.09375 13.71875-23.75 36.480469-23.75 62.445312v3.976563h-42.402344c-1.65625 0-3 1.34375-3 3v41.128906c0 1.65625 1.34375 3 3 3h42.402344v135.445313c0 1.65625 1.34375 3 3 3h56.1875c1.652343 0 3-1.34375 3-3v-135.445313h41.230468c1.65625 0 3-1.34375 3-3v-41.128906c-.003906-1.65625-1.347656-3-3.003906-3zm-3 41.128906h-41.230469c-1.65625 0-3 1.339844-3 3v135.445313h-50.183593v-135.445313c0-1.660156-1.34375-3-3-3h-42.40625v-35.128906h42.40625c1.65625 0 3-1.339844 3-3v-6.976563c0-23.921874 8.144531-45.605468 21.828124-58.046874 16.363282-15.496094 38.675782-17.171876 47.511719-17.171876 10.085938 0 18.824219.964844 26.625 2.9375l-1.886719 36.828126c-4.789062-1.140626-9.792968-1.699219-15.1875-1.699219-18.207031 0-29.074218 13.066406-29.074218 34.949219v9.179687c0 1.660156 1.34375 3 3 3h41.601562v35.128906zm0 0" fill="#3a312a"/><path d="m355.539062 128.824219h-27.082031c9.601563 0 17.402344 7.800781 17.402344 17.402343v258.238282c0 9.601562-7.800781 17.402344-17.402344 17.402344h27.082031c9.601563 0 17.398438-7.800782 17.398438-17.402344v-258.238282c0-9.601562-7.796875-17.402343-17.398438-17.402343zm0 0" fill="#68a8bc"/></svg>