<svg id="Layer_1" enable-background="new 0 0 256 256" height="512" viewBox="0 0 256 256" width="512" xmlns="http://www.w3.org/2000/svg"><path d="m172.669 209.457h-135.61c-16.049 0-29.059-13.01-29.059-29.059v-135.61c0-16.049 13.01-29.059 29.059-29.059h135.61c16.049 0 29.059 13.01 29.059 29.059v135.61c.001 16.049-13.009 29.059-29.059 29.059z" fill="#f9a7a7"/><g fill="#e0ebfc"><path d="m156.525 32.674h-103.32c-15.581 0-28.258 12.676-28.258 28.258v103.322c0 15.581 12.677 28.258 28.258 28.258h103.321c15.581 0 28.258-12.676 28.258-28.258v-103.323c-.001-15.581-12.678-28.257-28.259-28.257zm16.025 131.579c0 8.835-7.188 16.023-16.025 16.023h-103.32c-8.836 0-16.025-7.188-16.025-16.023v-103.322c0-8.835 7.188-16.023 16.025-16.023h103.321c8.836 0 16.025 7.188 16.025 16.023v103.322z"/><path d="m105.117 66.098c-28.512 0-51.708 23.196-51.708 51.707 0 28.512 23.196 51.707 51.708 51.707 28.51 0 51.706-23.196 51.706-51.707s-23.196-51.707-51.706-51.707zm0 91.179c-21.766 0-39.473-17.708-39.473-39.472s17.707-39.472 39.473-39.472c21.764 0 39.471 17.708 39.471 39.472s-17.707 39.472-39.471 39.472z"/><ellipse cx="151.254" cy="65.885" rx="9.618" ry="9.618" transform="matrix(.383 -.924 .924 .383 32.503 180.413)"/></g><path d="m172.67 211.458h-135.61c-17.126 0-31.06-13.934-31.06-31.06v-135.61c0-17.126 13.934-31.06 31.06-31.06h135.61c17.126 0 31.059 13.934 31.059 31.06v135.61c0 17.126-13.933 31.06-31.059 31.06zm-135.61-193.729c-14.921 0-27.06 12.138-27.06 27.059v135.61c0 14.921 12.139 27.06 27.06 27.06h135.61c14.92 0 27.059-12.139 27.059-27.06v-135.61c0-14.921-12.139-27.06-27.059-27.06h-135.61z" fill="#3762cc"/><path d="m201.89 200.16h-45.803v-9.335c0-10.918 8.851-19.769 19.769-19.769h6.265c10.918 0 19.769 8.851 19.769 19.769z" fill="#a4c9ff"/><circle cx="178.989" cy="148.154" fill="#f9cfcf" r="22.902"/><path d="m201.891 202.16h-45.804c-1.104 0-2-.896-2-2v-9.335c0-12.004 9.766-21.77 21.77-21.77h6.265c12.004 0 21.77 9.766 21.77 21.77v9.335c-.001 1.105-.897 2-2.001 2zm-43.804-4h41.804v-7.335c0-9.798-7.972-17.77-17.77-17.77h-6.265c-9.798 0-17.77 7.972-17.77 17.77v7.335z" fill="#3762cc"/><path d="m178.988 173.056c-13.73 0-24.901-11.171-24.901-24.901s11.171-24.901 24.901-24.901c13.731 0 24.902 11.171 24.902 24.901s-11.17 24.901-24.902 24.901zm0-45.803c-11.525 0-20.901 9.376-20.901 20.901s9.376 20.901 20.901 20.901 20.902-9.376 20.902-20.901-9.376-20.901-20.902-20.901z" fill="#3762cc"/><path d="m240.51 215.139h-123.043c-4.136 0-7.49-3.353-7.49-7.49 0-4.136 3.353-7.49 7.49-7.49h123.043c4.136 0 7.49 3.353 7.49 7.49 0 4.137-3.353 7.49-7.49 7.49z" fill="#6bdddd"/><path d="m240.511 217.14h-123.044c-5.232 0-9.489-4.257-9.489-9.49 0-5.232 4.257-9.489 9.489-9.489h123.044c5.232 0 9.489 4.257 9.489 9.489 0 5.233-4.257 9.49-9.489 9.49zm-123.044-14.98c-3.026 0-5.489 2.463-5.489 5.489 0 3.027 2.463 5.49 5.489 5.49h123.044c3.026 0 5.489-2.463 5.489-5.49 0-3.026-2.463-5.489-5.489-5.489z" fill="#3762cc"/><path d="m246.806 240.272h-50.918v-10.478c0-12.166 9.862-22.028 22.028-22.028h6.861c12.166 0 22.028 9.862 22.028 22.028v10.478z" fill="#e0ebfc"/><ellipse cx="221.347" cy="182.187" fill="#f9cfcf" rx="25.459" ry="25.579"/><path d="m246.807 242.271h-50.919c-1.104 0-2-.896-2-2v-10.478c0-13.249 10.779-24.028 24.028-24.028h6.862c13.249 0 24.028 10.779 24.028 24.028v10.478c.001 1.105-.895 2-1.999 2zm-48.919-4h46.919v-8.478c0-11.044-8.984-20.028-20.028-20.028h-6.862c-11.044 0-20.028 8.984-20.028 20.028v8.478z" fill="#3762cc"/><path d="m221.348 209.766c-15.142 0-27.46-12.372-27.46-27.579s12.318-27.578 27.46-27.578c15.141 0 27.459 12.371 27.459 27.578s-12.319 27.579-27.459 27.579zm0-51.158c-12.936 0-23.46 10.577-23.46 23.578 0 13.002 10.524 23.579 23.46 23.579s23.459-10.577 23.459-23.579c0-13-10.524-23.578-23.459-23.578z" fill="#3762cc"/><path d="m162.089 240.272h-50.918v-10.478c0-12.166 9.862-22.028 22.028-22.028h6.861c12.166 0 22.028 9.862 22.028 22.028v10.478z" fill="#4671c6"/><ellipse cx="136.63" cy="182.187" fill="#f9cfcf" rx="25.459" ry="25.579"/><path d="m162.089 242.271h-50.918c-1.104 0-2-.896-2-2v-10.478c0-13.249 10.779-24.028 24.028-24.028h6.861c13.249 0 24.028 10.779 24.028 24.028v10.478c.001 1.105-.895 2-1.999 2zm-48.918-4h46.918v-8.478c0-11.044-8.984-20.028-20.028-20.028h-6.861c-11.044 0-20.028 8.984-20.028 20.028v8.478z" fill="#3762cc"/><path d="m136.63 209.766c-15.141 0-27.459-12.372-27.459-27.579s12.318-27.578 27.459-27.578 27.459 12.371 27.459 27.578-12.318 27.579-27.459 27.579zm0-51.158c-12.936 0-23.459 10.577-23.459 23.578 0 13.002 10.523 23.579 23.459 23.579s23.459-10.577 23.459-23.579c0-13-10.524-23.578-23.459-23.578z" fill="#3762cc"/></svg>